<svg width="192" height="40" viewBox="0 0 192 40" fill="none" xmlns="http://www.w3.org/2000/svg">
<path d="M1.74902 15L20.499 5L39.249 15L20.499 25L1.74902 15Z" stroke="#FF6636" stroke-width="3" stroke-linecap="round" stroke-linejoin="round"/>
<path d="M29.874 37.5V20L20.499 15" stroke="#FF6636" stroke-width="3" stroke-linecap="round" stroke-linejoin="round"/>
<path d="M34.874 17.3333V25.8521C34.8745 26.1218 34.7874 26.3843 34.6257 26.6001C33.5731 28.0008 29.1323 33.1249 20.499 33.1249C11.8658 33.1249 7.42499 28.0008 6.37239 26.6001C6.21068 26.3843 6.12351 26.1218 6.12403 25.8521V17.3333" stroke="#FF6636" stroke-width="3" stroke-linecap="round" stroke-linejoin="round"/>
<path d="M69.9195 8.72727V32H66.1695L55.2036 16.1477H55.0104V32H50.7945V8.72727H54.5672L65.5218 24.5909H65.7263V8.72727H69.9195ZM81.0987 32.3409C79.3487 32.3409 77.8373 31.9773 76.5646 31.25C75.2994 30.5152 74.326 29.4773 73.6441 28.1364C72.9623 26.7879 72.6214 25.2008 72.6214 23.375C72.6214 21.5795 72.9623 20.0038 73.6441 18.6477C74.3335 17.2841 75.2957 16.2235 76.5305 15.4659C77.7654 14.7008 79.2161 14.3182 80.8828 14.3182C81.9585 14.3182 82.9737 14.4924 83.9282 14.8409C84.8904 15.1818 85.7388 15.7121 86.4737 16.4318C87.2161 17.1515 87.7994 18.0682 88.2237 19.1818C88.6479 20.2879 88.86 21.6061 88.86 23.1364V24.3977H74.5532V21.625H84.9169C84.9093 20.8371 84.7388 20.1364 84.4055 19.5227C84.0722 18.9015 83.6063 18.4129 83.0078 18.0568C82.4169 17.7008 81.7275 17.5227 80.9396 17.5227C80.0987 17.5227 79.36 17.7273 78.7237 18.1364C78.0873 18.5379 77.5911 19.0682 77.235 19.7273C76.8866 20.3788 76.7085 21.0947 76.701 21.875V24.2955C76.701 25.3106 76.8866 26.1818 77.2578 26.9091C77.629 27.6288 78.1479 28.1818 78.8146 28.5682C79.4813 28.947 80.2616 29.1364 81.1555 29.1364C81.754 29.1364 82.2957 29.053 82.7805 28.8864C83.2654 28.7121 83.6858 28.4583 84.0419 28.125C84.3979 27.7917 84.6669 27.3788 84.8487 26.8864L88.6896 27.3182C88.4472 28.3333 87.985 29.2197 87.3032 29.9773C86.629 30.7273 85.7654 31.3106 84.7123 31.7273C83.6593 32.1364 82.4547 32.3409 81.0987 32.3409ZM94.3688 14.5455L97.8915 20.9886L101.471 14.5455H105.823L100.562 23.2727L105.914 32H101.585L97.8915 25.7159L94.2324 32H89.8688L95.187 23.2727L90.0052 14.5455H94.3688ZM116.761 14.5455V17.7273H106.727V14.5455H116.761ZM109.204 10.3636H113.318V26.75C113.318 27.303 113.401 27.7273 113.568 28.0227C113.742 28.3106 113.969 28.5076 114.25 28.6136C114.53 28.7197 114.841 28.7727 115.182 28.7727C115.439 28.7727 115.674 28.7538 115.886 28.7159C116.106 28.678 116.272 28.6439 116.386 28.6136L117.079 31.8295C116.86 31.9053 116.545 31.9886 116.136 32.0795C115.735 32.1705 115.242 32.2235 114.659 32.2386C113.628 32.2689 112.7 32.1136 111.875 31.7727C111.049 31.4242 110.394 30.8864 109.909 30.1591C109.432 29.4318 109.197 28.5227 109.204 27.4318V10.3636ZM129.258 20.6136V24H118.781V20.6136H129.258ZM148.398 16.1591C148.208 15.5455 147.947 14.9962 147.614 14.5114C147.288 14.0189 146.894 13.5985 146.432 13.25C145.977 12.9015 145.455 12.6402 144.864 12.4659C144.273 12.2841 143.629 12.1932 142.932 12.1932C141.682 12.1932 140.568 12.5076 139.591 13.1364C138.614 13.7652 137.845 14.6894 137.284 15.9091C136.731 17.1212 136.455 18.5985 136.455 20.3409C136.455 22.0985 136.731 23.5871 137.284 24.8068C137.837 26.0265 138.606 26.9545 139.591 27.5909C140.576 28.2197 141.72 28.5341 143.023 28.5341C144.205 28.5341 145.227 28.3068 146.091 27.8523C146.962 27.3977 147.633 26.7538 148.102 25.9205C148.572 25.0795 148.807 24.0947 148.807 22.9659L149.762 23.1136H143.443V19.8182H152.887V22.6136C152.887 24.6061 152.462 26.3295 151.614 27.7841C150.765 29.2386 149.599 30.3598 148.114 31.1477C146.629 31.928 144.924 32.3182 143 32.3182C140.856 32.3182 138.974 31.8371 137.352 30.875C135.739 29.9053 134.477 28.5303 133.568 26.75C132.667 24.9621 132.216 22.8409 132.216 20.3864C132.216 18.5076 132.481 16.8295 133.012 15.3523C133.549 13.875 134.299 12.6212 135.262 11.5909C136.224 10.553 137.352 9.76515 138.648 9.22727C139.943 8.68182 141.352 8.40909 142.875 8.40909C144.163 8.40909 145.364 8.59848 146.477 8.97727C147.591 9.34848 148.58 9.87879 149.443 10.5682C150.315 11.2576 151.03 12.0758 151.591 13.0227C152.152 13.9697 152.519 15.0152 152.693 16.1591H148.398ZM163.549 32.3409C161.799 32.3409 160.287 31.9773 159.015 31.25C157.749 30.5152 156.776 29.4773 156.094 28.1364C155.412 26.7879 155.071 25.2008 155.071 23.375C155.071 21.5795 155.412 20.0038 156.094 18.6477C156.784 17.2841 157.746 16.2235 158.98 15.4659C160.215 14.7008 161.666 14.3182 163.333 14.3182C164.409 14.3182 165.424 14.4924 166.378 14.8409C167.34 15.1818 168.189 15.7121 168.924 16.4318C169.666 17.1515 170.249 18.0682 170.674 19.1818C171.098 20.2879 171.31 21.6061 171.31 23.1364V24.3977H157.003V21.625H167.367C167.359 20.8371 167.189 20.1364 166.855 19.5227C166.522 18.9015 166.056 18.4129 165.458 18.0568C164.867 17.7008 164.177 17.5227 163.39 17.5227C162.549 17.5227 161.81 17.7273 161.174 18.1364C160.537 18.5379 160.041 19.0682 159.685 19.7273C159.337 20.3788 159.159 21.0947 159.151 21.875V24.2955C159.151 25.3106 159.337 26.1818 159.708 26.9091C160.079 27.6288 160.598 28.1818 161.265 28.5682C161.931 28.947 162.712 29.1364 163.605 29.1364C164.204 29.1364 164.746 29.053 165.23 28.8864C165.715 28.7121 166.136 28.4583 166.492 28.125C166.848 27.7917 167.117 27.3788 167.299 26.8864L171.14 27.3182C170.897 28.3333 170.435 29.2197 169.753 29.9773C169.079 30.7273 168.215 31.3106 167.162 31.7273C166.109 32.1364 164.905 32.3409 163.549 32.3409ZM177.944 21.7727V32H173.83V14.5455H177.762V17.5114H177.967C178.368 16.5341 179.008 15.7576 179.887 15.1818C180.773 14.6061 181.868 14.3182 183.171 14.3182C184.376 14.3182 185.425 14.5758 186.319 15.0909C187.22 15.6061 187.917 16.3523 188.41 17.3295C188.91 18.3068 189.156 19.4924 189.148 20.8864V32H185.035V21.5227C185.035 20.3561 184.732 19.4432 184.126 18.7841C183.527 18.125 182.698 17.7955 181.637 17.7955C180.917 17.7955 180.277 17.9545 179.717 18.2727C179.163 18.5833 178.728 19.0341 178.41 19.625C178.099 20.2159 177.944 20.9318 177.944 21.7727Z" fill="#1D2026"/>
</svg>
